<?xml version="1.0" standalone="no"?>
<!DOCTYPE svg PUBLIC "-//W3C//DTD SVG 20010904//EN"
 "http://www.w3.org/TR/2001/REC-SVG-20010904/DTD/svg10.dtd">
<svg version="1.0" xmlns="http://www.w3.org/2000/svg"
 width="240.000000pt" height="240.000000pt" viewBox="0 0 240.000000 240.000000"
 preserveAspectRatio="xMidYMid meet">

<g transform="translate(0.000000,240.000000) scale(0.100000,-0.100000)"
fill="#000000" stroke="none">
<path d="M1060 2389 c-515 -64 -924 -440 -1033 -949 -28 -132 -28 -348 0 -480
56 -263 192 -494 391 -665 501 -433 1263 -376 1691 127 384 451 383 1112 -4
1560 -171 198 -406 337 -660 389 -110 23 -284 31 -385 18z m-26 -778 l161
-160 161 160 c158 155 162 159 204 159 40 0 48 -5 131 -86 94 -92 115 -127
104 -171 -4 -17 -66 -88 -163 -185 l-156 -158 156 -157 c97 -98 159 -169 163
-186 11 -44 -10 -79 -104 -171 -83 -81 -91 -86 -132 -86 -42 0 -46 3 -203 160
l-161 159 -161 -159 c-157 -157 -161 -160 -203 -160 -41 0 -49 5 -132 86 -94
92 -115 127 -104 171 4 17 66 88 163 186 l156 157 -156 158 c-97 97 -159 168
-163 185 -11 44 10 79 104 171 83 81 91 86 131 86 42 0 46 -4 204 -159z"/>
</g>
</svg>
